<?xml version="1.0" encoding="utf-8"?>
<!-- Generator: Adobe Illustrator 17.1.0, SVG Export Plug-In . SVG Version: 6.00 Build 0)  -->
<!DOCTYPE svg PUBLIC "-//W3C//DTD SVG 1.1//EN" "http://www.w3.org/Graphics/SVG/1.1/DTD/svg11.dtd">
<svg version="1.1" id="Layer_1" xmlns="http://www.w3.org/2000/svg" xmlns:xlink="http://www.w3.org/1999/xlink" x="0px" y="0px"
	 width="40px" height="40px" viewBox="0 0 40 40" style="enable-background:new 0 0 40 40;" xml:space="preserve">
<path style="fill:#0B0C0C;" d="M31.1,19.2L16.3,33.8c-1.2,1.2-2.8,1.8-4.4,1.8S8.6,35,7.4,33.8C5,31.4,5,27.4,7.4,25L25.6,5.9
	c0.9-0.9,2.1-1.4,3.3-1.4s2.5,0.5,3.3,1.4c1.9,1.9,1.9,4.8,0,6.7L15.9,28.8c-0.4,0.4-1.1,0.7-1.7,0.7s-1.2-0.2-1.7-0.7
	c-0.4-0.4-0.7-1.1-0.7-1.7s0.2-1.2,0.7-1.7L25,13l-1.6-1.6L10.9,23.8c-1.8,1.8-1.8,4.8,0,6.6c0.9,0.9,2.1,1.3,3.3,1.3
	s2.4-0.4,3.3-1.3l16.4-16.2c2.7-2.7,2.7-7.1,0-9.9c-1.3-1.4-3.1-2.1-4.9-2.1c-1.8,0-3.6,0.7-5,2.1L5.8,23.4c-3.3,3.3-3.3,8.7,0,12
	c1.7,1.7,3.8,2.5,6,2.5s4.4-0.8,6-2.5l14.8-14.7L31.1,19.2z"/>
</svg>
