<svg baseProfile="tiny" xmlns="http://www.w3.org/2000/svg" preserveAspectRatio="xMinYMin meet" xmlns:xlink="http://www.w3.org/1999/xlink" viewBox="0 0 100 2700" width="100" height="2700"><path d="M15.2 9.7L7.8 17c-.6.6-1.4.9-2.2.9S4 17.6 3.4 17c-1.2-1.2-1.2-3.2 0-4.4l9-9.5c.5-.5 1-.7 1.7-.7s1.2.2 1.7.7c.9.9.9 2.4 0 3.3l-8.1 8c-.2.2-.5.4-.8.4-.3 0-.6-.1-.8-.4-.2-.2-.4-.5-.4-.8 0-.3.1-.6.4-.8l6.2-6.1-.8-.8L5.1 12c-.9.9-.9 2.4 0 3.3.5.5 1 .7 1.6.7s1.2-.2 1.6-.7l8.1-8c1.4-1.4 1.4-3.5 0-4.9-.7-.7-1.6-1-2.4-1-.9 0-1.8.3-2.5 1l-9 9.5c-1.7 1.7-1.7 4.3 0 6 .8.8 1.9 1.2 3 1.2s2.2-.4 3-1.2l7.4-7.3-.7-.9z" fill="#0B0C0C"/><g transform="translate(0 100)"><path d="M15.2 9.7L7.8 17c-.6.6-1.4.9-2.2.9S4 17.6 3.4 17c-1.2-1.2-1.2-3.2 0-4.4l9-9.5c.5-.5 1-.7 1.7-.7s1.2.2 1.7.7c.9.9.9 2.4 0 3.3l-8.1 8c-.2.2-.5.4-.8.4-.3 0-.6-.1-.8-.4-.2-.2-.4-.5-.4-.8 0-.3.1-.6.4-.8l6.2-6.1-.8-.8L5.1 12c-.9.9-.9 2.4 0 3.3.5.5 1 .7 1.6.7s1.2-.2 1.6-.7l8.1-8c1.4-1.4 1.4-3.5 0-4.9-.7-.7-1.6-1-2.4-1-.9 0-1.8.3-2.5 1l-9 9.5c-1.7 1.7-1.7 4.3 0 6 .8.8 1.9 1.2 3 1.2s2.2-.4 3-1.2l7.4-7.3-.7-.9z" fill="#0B0C0C"/></g><g transform="translate(0 200)"><g><g><g><defs><path id="dropdown-downa" d="M5.9 6.3L1.2 1h9.5z"/></defs><clipPath id="dropdown-downb"><use xlink:href="#dropdown-downa" overflow="visible"/></clipPath><path clip-path="url(#dropdown-downb)" fill="#7D7E86" d="M-3.8-4h19.5v15.2H-3.8z"/></g></g></g></g><g transform="translate(0 300)"><g><g><g><defs><path id="dropdown-upa" d="M5.9 1l4.8 5.3H1.2z"/></defs><clipPath id="dropdown-upb"><use xlink:href="#dropdown-upa" overflow="visible"/></clipPath><path clip-path="url(#dropdown-upb)" fill="#7D7E86" d="M-3.8-4h19.5v15.2H-3.8z"/></g></g></g></g><g transform="translate(0 400)"><title>Line 2 + Triangle 4 + Path 19</title><desc>Created with Sketch.</desc><g fill="none" fill-rule="evenodd"><g transform="translate(-245 -276)"><g transform="translate(246 274)"><path d="M3.5 9.5l5.755-5.954" stroke="#0b0c0c" stroke-linecap="square"/><path fill="#0b0c0c" d="M10.414 2.586l-.284 3.958L6.456 2.87z"/><path d="M6.13 4.446H-.33v8.86h8.963V6.443" stroke="#0b0c0c"/></g></g></g></g><g transform="translate(0 500)"><title>Line 4 + Triangle 6 + Path 21</title><desc>Created with Sketch.</desc><g fill="none" fill-rule="evenodd"><g transform="translate(-202 -276)"><g transform="translate(203 274)"><path d="M3.5 9.5l5.755-5.954" stroke="#fff" stroke-linecap="square"/><path fill="#fff" d="M10.414 2.586l-.284 3.958L6.456 2.87z"/><path d="M6.13 4.446H-.33v8.86h8.963V6.443" stroke="#fff"/></g></g></g></g><g transform="translate(0 600)"><style type="text/css">.st0{clip-path:url(#SVGID_2_);fill-rule:evenodd;clip-rule:evenodd;fill:#FFFFFF;}</style><g><g><defs><path id="SVGID_1_" d="M5.92 1.027l4.763 5.25H1.157z"/></defs><use xlink:href="#SVGID_1_" overflow="visible" fill-rule="evenodd" clip-rule="evenodd" fill="#fff"/><clipPath id="SVGID_2_"><use xlink:href="#SVGID_1_" overflow="visible"/></clipPath><path class="st0" d="M-3.843-3.973h19.526v15.25H-3.843z"/></g></g></g><g transform="translate(0 700)"><title>internal-application-complete</title><desc>Created with Sketch.</desc><g fill="none" fill-rule="evenodd"><g transform="translate(-26 -342)" fill="#146C55"><path d="M31.657 350.773l-3.49-3.335L26 349.522l5.657 5.438 11.314-10.875L40.785 342l-9.126 8.773"/></g></g></g><g transform="translate(0 800)"><title>internal-application-updated</title><desc>Created with Sketch.</desc><g fill="none" fill-rule="evenodd"><g transform="translate(-26 -385)" fill="#7D7E86"><g transform="translate(26 385)"><g><path d="M0 14.974l1.294-4.82L4.83 13.68 0 14.974M1.883 9.565L11.463 0 15 3.53l-9.58 9.564-3.537-3.53"/></g></g></g></g></g><g transform="translate(0 900)"><title>internal-application-warning</title><desc>Created with Sketch.</desc><g fill="none" fill-rule="evenodd"><g transform="translate(-26 -435)" fill="#7D7E86"><path d="M43.802 449.102l-8.347-13.828c-.102-.17-.29-.274-.495-.274-.204 0-.392.104-.495.274l-8.388 13.898c-.102.17-.103.38 0 .55.102.17.29.275.496.275h16.783c.316 0 .572-.246.572-.55 0-.13-.047-.25-.126-.345zm-9.74-2.866h1.797v1.663h-1.8v-1.665zm0-6.295h1.797v5.033h-1.8v-5.03z"/></g></g></g><g transform="translate(0 1000)"><title>internal-modal-close</title><desc>Created with Sketch.</desc><g fill="none" fill-rule="evenodd"><g transform="translate(-286 -382)" fill="#7D7E86"><g transform="translate(278 382)"><path d="M23.112 12.283l-1.757 1.757L16 8.685l-5.355 5.355-1.757-1.757L14.13 7.04 8.808 1.718 10.564-.04 16 5.396 21.436-.04l1.757 1.757L17.87 7.04l5.242 5.243z"/></g></g></g></g><g transform="translate(0 1100)"><title>internal-search</title><desc>Created with Sketch.</desc><g fill="none" fill-rule="evenodd"><g transform="translate(-19 -67)" fill="#fff"><g transform="translate(19 67)"><path d="M11.01 9.297C11.637 8.35 12 7.217 12 6c0-3.308-2.69-6-6-6-3.308 0-6 2.692-6 6 0 3.31 2.692 6 6 6 1.217 0 2.35-.364 3.297-.99.018.022.037.043.057.063l3.573 3.572c.472.473 1.246.473 1.72 0 .47-.472.47-1.245 0-1.718l-3.574-3.573c-.02-.02-.04-.04-.062-.057zM6 10c2.21 0 4-1.79 4-4S8.21 2 6 2 2 3.79 2 6s1.79 4 4 4z"/></g></g></g></g><g transform="translate(0 1200)"><title>internal-split-screen-close</title><desc>Created with Sketch.</desc><g fill="none" fill-rule="evenodd"><g transform="translate(-101 -102)" fill="#7D7E86"><g transform="translate(94 103)"><path d="M18.015 9.365L16.92 10.46 12.5 6.04l-4.42 4.42-1.095-1.095L11.39 4.96 7.062.636 8.158-.46 12.5 3.88l4.342-4.34L17.937.635 13.61 4.96l4.405 4.405z"/></g></g></g></g><g transform="translate(0 1300)"><title>internal-split-screen-down</title><desc>Created with Sketch.</desc><g fill="none" fill-rule="evenodd"><g transform="translate(-101 -257)" fill="#7D7E86"><path d="M111.443 257.665l1.167 1.167-5.445 5.444-5.775-5.774 1.167-1.167 4.608 4.608 4.278-4.278z"/></g></g></g><g transform="translate(0 1400)"><title>internal-split-screen-left</title><desc>Created with Sketch.</desc><g fill="none" fill-rule="evenodd"><g transform="translate(-103 -216)" fill="#7D7E86"><path d="M109.835 226.943l-1.167 1.167-5.444-5.445 5.774-5.775 1.167 1.167-4.608 4.608 4.278 4.278z"/></g></g></g><g transform="translate(0 1500)"><title>internal-split-screen-pin-bottom</title><desc>Created with Sketch.</desc><g fill="none" fill-rule="evenodd"><g transform="translate(-101 -136)" fill="#7D7E86"><path d="M101 136v12h12v-12h-12zm1 1v5h10v-5h-10z"/></g></g></g><g transform="translate(0 1600)"><title>internal-split-screen-pin-left</title><desc>Created with Sketch.</desc><g fill="none" fill-rule="evenodd"><g transform="translate(-101 -173)" fill="#7D7E86"><path d="M101 173h12v12h-12v-12zm1 1h5v10h-5v-10z"/></g></g></g><g transform="translate(0 1700)"><title>lock</title><desc>Created with Sketch.</desc><g fill="none" fill-rule="evenodd"><g transform="translate(-283 -472)" fill="#7D7E86"><path d="M288 472c-1.842 0-3.333 1.534-3.333 3.43v1.713H283V484h10v-6.857h-1.667v-1.714c0-1.897-1.49-3.43-3.333-3.43zm0 1.714c.992 0 1.667.695 1.667 1.715v1.712h-3.334v-1.714c0-1.02.675-1.716 1.667-1.716z"/></g></g></g><g transform="translate(0 1800)"><title>selfserve-breadcrumb</title><desc>Created with Sketch.</desc><g fill="none" fill-rule="evenodd"><g transform="translate(-234 -88)" fill="#7D7E86"><path d="M234.54 100.554l1.418 1.417 6.93-6.93-7.013-7.01-1.416 1.417 5.593 5.595-5.513 5.514z"/></g></g></g><g transform="translate(0 1900)"><title>Rectangle 38 + Rectangle 39</title><desc>Created with Sketch.</desc><g fill="none" fill-rule="evenodd"><g transform="translate(-104 -228)" fill="#fff"><g transform="translate(84 208)"><g transform="rotate(45 27.121 27.121) translate(19.121 19.121)"><path d="M6 6V0h4v6h6v4h-6v6H6v-6H0V6h6z"/></g></g></g></g></g><g transform="translate(0 2000)"><title>selfserve-document</title><desc>Created with Sketch.</desc><g fill="none" fill-rule="evenodd"><g transform="translate(-350 -164)" fill="#255AAA"><g transform="translate(350 164)"><path d="M7 7h20v23H7zM5 23H0V0h20v5H5v18z"/></g></g></g></g><g transform="translate(0 2100)"><title>Line 4 + Triangle 6 + Path 21</title><desc>Created with Sketch.</desc><g fill="none" fill-rule="evenodd"><g transform="translate(-202 -276)"><g transform="translate(203 274)"><path d="M3.5 9.5l5.755-5.954" stroke="#454A4C" stroke-linecap="square"/><path fill="#454A4C" d="M10.414 2.586l-.284 3.958L6.456 2.87z"/><path d="M6.13 4.446H-.33v8.86h8.963V6.443" stroke="#454A4C"/></g></g></g></g><g transform="translate(0 2200)"><title>Line 2 + Triangle 4 + Path 19</title><desc>Created with Sketch.</desc><g fill="none" fill-rule="evenodd"><g transform="translate(-245 -276)"><g transform="translate(246 274)"><path d="M3.5 9.5l5.755-5.954" stroke="#005EA8" stroke-linecap="square"/><path fill="#005EA8" d="M10.414 2.586l-.284 3.958L6.456 2.87z"/><path d="M6.13 4.446H-.33v8.86h8.963V6.443" stroke="#005EA8"/></g></g></g></g><g transform="translate(0 2300)"><title>Line 3 + Triangle 5 + Path 20</title><desc>Created with Sketch.</desc><g fill="none" fill-rule="evenodd"><g transform="translate(-288 -276)"><g transform="translate(289 274)"><path d="M3.5 9.5l5.755-5.954" stroke="#2E8ACA" stroke-linecap="square"/><path fill="#2E8ACA" d="M10.414 2.586l-.284 3.958L6.456 2.87z"/><path d="M6.13 4.446H-.33v8.86h8.963V6.443" stroke="#2E8ACA"/></g></g></g></g><g transform="translate(0 2400)"><title>selfserve-important</title><desc>Created with Sketch.</desc><g fill="none" fill-rule="evenodd"><g transform="translate(-351 -117)" fill="#222"><path d="M363.472 117c-6.9 0-12.472 5.57-12.472 12.472 0 6.9 5.57 12.472 12.472 12.472 6.9 0 12.472-5.57 12.472-12.472 0-6.9-5.57-12.472-12.472-12.472zm1.712 20.283h-3.424v-8.994h3.39l.034 8.992zm-1.712-10.482c-1.233 0-2.267-.992-2.267-2.265 0-1.233.994-2.268 2.267-2.268 1.233 0 2.268.995 2.268 2.268 0 1.273-1.035 2.267-2.268 2.267z"/></g></g></g><g transform="translate(0 2500)"><title>selfserve-modal-close</title><desc>Created with Sketch.</desc><g fill="none" fill-rule="evenodd"><g transform="translate(-223 -367)" fill="#7D7E86"><g transform="translate(210 367)"><path d="M35.53 19.23l-2.69 2.69-8.34-8.34-8.34 8.34-2.69-2.69 8.308-8.31-8.152-8.15 2.69-2.69L24.5 8.26 32.683.08l2.69 2.69-8.15 8.15 8.308 8.31z"/></g></g></g></g><g transform="translate(0 2600)"><title>Combined Shape</title><desc>Created with Sketch.</desc><g fill="none" fill-rule="evenodd"><g transform="translate(-99 -170)" fill="#fff"><g transform="translate(84 150)"><g transform="rotate(45 25 25) translate(20 17)"><path d="M6 12V0h4v16H0v-4h6z"/></g></g></g></g></g></svg>