<?xml version="1.0" encoding="utf-8"?><!DOCTYPE svg PUBLIC "-//W3C//DTD SVG 1.1//EN" "http://www.w3.org/Graphics/SVG/1.1/DTD/svg11.dtd"><svg width="36" height="412" viewBox="0 0 36 412" xmlns="http://www.w3.org/2000/svg" xmlns:xlink="http://www.w3.org/1999/xlink"><svg width="20" height="20" viewBox="0 0 20 20" id="attachment" xmlns="http://www.w3.org/2000/svg"><path d="M15.2 9.7L7.8 17c-.6.6-1.4.9-2.2.9S4 17.6 3.4 17c-1.2-1.2-1.2-3.2 0-4.4l9-9.5c.5-.5 1-.7 1.7-.7s1.2.2 1.7.7c.9.9.9 2.4 0 3.3l-8.1 8c-.2.2-.5.4-.8.4-.3 0-.6-.1-.8-.4-.2-.2-.4-.5-.4-.8 0-.3.1-.6.4-.8l6.2-6.1-.8-.8L5.1 12c-.9.9-.9 2.4 0 3.3.5.5 1 .7 1.6.7s1.2-.2 1.6-.7l8.1-8c1.4-1.4 1.4-3.5 0-4.9-.7-.7-1.6-1-2.4-1-.9 0-1.8.3-2.5 1l-9 9.5c-1.7 1.7-1.7 4.3 0 6 .8.8 1.9 1.2 3 1.2s2.2-.4 3-1.2l7.4-7.3-.7-.9z" fill="#0b0c0c"/></svg><svg width="11.9" height="7.6" viewBox="0 0 11.9 7.6" id="dropdown-down" y="20" xmlns="http://www.w3.org/2000/svg"><defs><path id="aba" d="M5.9 6.3L1.2 1h9.5z"/></defs><clipPath id="abb"><use xlink:href="#aba" overflow="visible"/></clipPath><path clip-path="url(#abb)" fill="#7d7e86" d="M-3.8-4h19.5v15.2H-3.8z"/></svg><svg width="11.9" height="7.6" viewBox="0 0 11.9 7.6" id="dropdown-up" y="28" xmlns="http://www.w3.org/2000/svg"><defs><path id="aca" d="M5.9 1l4.8 5.3H1.2z"/></defs><clipPath id="acb"><use xlink:href="#aca" overflow="visible"/></clipPath><path clip-path="url(#acb)" fill="#7d7e86" d="M-3.8-4h19.5v15.2H-3.8z"/></svg><svg width="12" height="12" viewBox="0 0 12 12" id="external-link-dark" y="36" xmlns="http://www.w3.org/2000/svg"><title>Line 2 + Triangle 4 + Path 19</title><g transform="translate(1 -2)" fill="none" fill-rule="evenodd"><path d="M3.5 9.5l5.755-5.954" stroke="#0b0c0c" stroke-linecap="square"/><path fill="#0b0c0c" d="M10.414 2.586l-.284 3.958L6.456 2.87z"/><path d="M6.13 4.446H-.332v8.86h8.964V6.443" stroke="#0b0c0c"/></g></svg><svg width="12" height="12" viewBox="0 0 12 12" id="external-link-white" y="48" xmlns="http://www.w3.org/2000/svg"><title>Line 4 + Triangle 6 + Path 21</title><g transform="translate(1 -2)" fill="none" fill-rule="evenodd"><path d="M3.5 9.5l5.755-5.954" stroke="#fff" stroke-linecap="square"/><path fill="#fff" d="M10.414 2.586l-.284 3.958L6.456 2.87z"/><path d="M6.13 4.446H-.332v8.86h8.964V6.443" stroke="#fff"/></g></svg><svg id="internal-admin-menu-arrow" width="11.914" height="7.595" viewBox="0 0 11.914 7.595" y="60" xmlns="http://www.w3.org/2000/svg"><style>.afst0{clip-path:url(#afSVGID_2_);fill-rule:evenodd;clip-rule:evenodd;fill:#fff}</style><defs><path id="afSVGID_1_" d="M5.92 1.027l4.763 5.25H1.157z"/></defs><use xlink:href="#afSVGID_1_" overflow="visible" fill-rule="evenodd" clip-rule="evenodd" fill="#fff"/><clipPath id="afSVGID_2_"><use xlink:href="#afSVGID_1_" overflow="visible"/></clipPath><path class="afst0" d="M-3.843-3.973h19.526v15.25H-3.843z"/></svg><svg width="17" height="13" viewBox="0 0 17 13" id="internal-application-complete" y="68" xmlns="http://www.w3.org/2000/svg"><title>internal-application-complete</title><path d="M5.657 8.773L2.168 5.438 0 7.522l5.657 5.438L16.97 2.085 14.783 0 5.657 8.773" fill="#146C55" fill-rule="evenodd"/></svg><svg width="15" height="15" viewBox="0 0 15 15" id="internal-application-edited" y="81" xmlns="http://www.w3.org/2000/svg"><title>internal-application-updated</title><g fill="#7D7E86" fill-rule="evenodd"><path d="M0 14.974l1.294-4.821 3.536 3.53L0 14.973M1.883 9.565L11.464 0 15 3.53l-9.581 9.564-3.536-3.53"/></g></svg><svg width="18" height="15" viewBox="0 0 18 15" id="internal-application-warning" y="96" xmlns="http://www.w3.org/2000/svg"><title>internal-application-warning</title><path d="M17.802 14.102L9.455.274A.577.577 0 0 0 8.96 0a.577.577 0 0 0-.495.274L.077 14.172a.53.53 0 0 0 0 .55c.102.17.29.275.496.275h16.783a.561.561 0 0 0 .572-.55.535.535 0 0 0-.126-.345zm-9.74-2.866h1.797V12.9H8.062v-1.663zm0-6.295h1.797v5.03H8.062v-5.03z" fill="#7D7E86" fill-rule="evenodd"/></svg><svg width="16" height="14" viewBox="0 0 16 14" id="internal-modal-close" y="111" xmlns="http://www.w3.org/2000/svg"><title>internal-modal-close</title><path d="M15.112 12.283l-1.757 1.757L8 8.685 2.645 14.04.888 12.283 6.13 7.041.807 1.717 2.564-.04 8 5.396 13.436-.04l1.757 1.757L9.87 7.04l5.243 5.242z" fill="#7D7E86" fill-rule="evenodd"/></svg><svg width="15" height="15" viewBox="0 0 15 15" id="internal-search" y="125" xmlns="http://www.w3.org/2000/svg"><title>internal-search</title><path d="M11.011 9.297C11.636 8.35 12 7.217 12 6 12 2.692 9.309 0 6 0 2.693 0 0 2.692 0 6c0 3.309 2.692 6 6 6 1.217 0 2.35-.364 3.297-.989.018.021.037.042.057.062l3.573 3.572a1.218 1.218 0 0 0 1.719 0 1.22 1.22 0 0 0 0-1.718l-3.573-3.573a1.22 1.22 0 0 0-.062-.057zM6 10a4 4 0 1 0 0-8 4 4 0 0 0 0 8z" fill="#FFF" fill-rule="evenodd"/></svg><svg width="11" height="12" viewBox="0 0 11 12" id="internal-split-screen-close" y="140" xmlns="http://www.w3.org/2000/svg"><title>internal-split-screen-close</title><path d="M11.015 10.365L9.92 11.46 5.5 7.04l-4.42 4.42-1.095-1.095 4.404-4.404L.063 1.635 1.158.54 5.5 4.88 9.842.54l1.095 1.095L6.61 5.96l4.404 4.404z" fill="#7D7E86" fill-rule="evenodd"/></svg><svg width="13" height="9" viewBox="0 0 13 9" id="internal-split-screen-down" y="152" xmlns="http://www.w3.org/2000/svg"><title>internal-split-screen-down</title><path d="M10.443.665l1.167 1.167-5.445 5.444L.39 1.502 1.557.335l4.608 4.608L10.443.665z" fill="#7D7E86" fill-rule="evenodd"/></svg><svg width="8" height="13" viewBox="0 0 8 13" id="internal-split-screen-left" y="161" xmlns="http://www.w3.org/2000/svg"><title>internal-split-screen-left</title><path d="M6.835 10.943L5.668 12.11.224 6.665 5.998.89l1.167 1.167-4.608 4.608 4.278 4.278z" fill="#7D7E86" fill-rule="evenodd"/></svg><svg width="12" height="12" viewBox="0 0 12 12" id="internal-split-screen-pin-bottom" y="174" xmlns="http://www.w3.org/2000/svg"><title>internal-split-screen-pin-bottom</title><path d="M0 0v12h12V0H0zm1 1v5h10V1H1z" fill="#7D7E86" fill-rule="evenodd"/></svg><svg width="12" height="12" viewBox="0 0 12 12" id="internal-split-screen-pin-left" y="186" xmlns="http://www.w3.org/2000/svg"><title>internal-split-screen-pin-left</title><path d="M0 0h12v12H0V0zm1 1h5v10H1V1z" fill="#7D7E86" fill-rule="evenodd"/></svg><svg width="10" height="12" viewBox="0 0 10 12" id="lock" y="198" xmlns="http://www.w3.org/2000/svg"><title>lock</title><path d="M5 0C3.158 0 1.667 1.534 1.667 3.429v1.714H0V12h10V5.143H8.333V3.429C8.333 1.534 6.842 0 5 0zm0 1.714c.992 0 1.667.695 1.667 1.715v1.714H3.333V3.429c0-1.02.675-1.715 1.667-1.715z" fill="#7D7E86" fill-rule="evenodd"/></svg><svg width="9" height="14" viewBox="0 0 9 14" id="selfserve-breadcrumb" y="210" xmlns="http://www.w3.org/2000/svg"><title>selfserve-breadcrumb</title><path d="M.541 12.554l1.417 1.417 6.93-6.93L1.875.03.46 1.446 6.054 7.04.541 12.554z" fill="#7D7E86" fill-rule="evenodd"/></svg><svg width="15" height="15" viewBox="0 0 15 15" id="selfserve-cross" y="224" xmlns="http://www.w3.org/2000/svg"><title>Rectangle 38 + Rectangle 39</title><path d="M7.121 4.293L11.364.05l2.828 2.829L9.95 7.12l4.242 4.243-2.828 2.828L7.121 9.95 2.88 14.192.05 11.364l4.243-4.243L.05 2.88 2.88.05 7.12 4.293z" fill="#FFF" fill-rule="evenodd"/></svg><svg data-name="Layer 1" viewBox="0 0 30 39" width="30" height="39" id="selfserve-document" y="239" xmlns="http://www.w3.org/2000/svg"><title>selfserve-document</title><path d="M0 0h25v34H0z"/><path d="M27 5v31H5v3h25V5h-3z"/></svg><svg baseProfile="tiny" width="36" height="36" viewBox="0 0 36 36" id="selfserve-exclamation" y="278" xmlns="http://www.w3.org/2000/svg"><path d="M18 0C8.1 0 0 8.1 0 18s8.1 18 18 18 18-8.1 18-18S27.9 0 18 0zm.5 28.1c-1.5 0-2.6-1.2-2.6-2.6s1.2-2.6 2.6-2.6 2.6 1.2 2.6 2.6-1.1 2.6-2.6 2.6zm2.1-7.5h-4.2l-1-12.7h5.8l-.6 12.7z"/></svg><svg width="12" height="12" viewBox="0 0 12 12" id="selfserve-external-footer" y="314" xmlns="http://www.w3.org/2000/svg"><title>Line 4 + Triangle 6 + Path 21</title><g transform="translate(1 -2)" fill="none" fill-rule="evenodd"><path d="M3.5 9.5l5.755-5.954" stroke="#454A4C" stroke-linecap="square"/><path fill="#454A4C" d="M10.414 2.586l-.284 3.958L6.456 2.87z"/><path d="M6.13 4.446H-.332v8.86h8.964V6.443" stroke="#454A4C"/></g></svg><svg width="12" height="12" viewBox="0 0 12 12" id="selfserve-external-link" y="326" xmlns="http://www.w3.org/2000/svg"><title>Line 2 + Triangle 4 + Path 19</title><g transform="translate(1 -2)" fill="none" fill-rule="evenodd"><path d="M3.5 9.5l5.755-5.954" stroke="#005EA8" stroke-linecap="square"/><path fill="#005EA8" d="M10.414 2.586l-.284 3.958L6.456 2.87z"/><path d="M6.13 4.446H-.332v8.86h8.964V6.443" stroke="#005EA8"/></g></svg><svg width="12" height="12" viewBox="0 0 12 12" id="selfserve-external-link-hover" y="338" xmlns="http://www.w3.org/2000/svg"><title>Line 3 + Triangle 5 + Path 20</title><g transform="translate(1 -2)" fill="none" fill-rule="evenodd"><path d="M3.5 9.5l5.755-5.954" stroke="#2E8ACA" stroke-linecap="square"/><path fill="#2E8ACA" d="M10.414 2.586l-.284 3.958L6.456 2.87z"/><path d="M6.13 4.446H-.332v8.86h8.964V6.443" stroke="#2E8ACA"/></g></svg><svg width="25" height="25" viewBox="0 0 25 25" id="selfserve-important" y="350" xmlns="http://www.w3.org/2000/svg"><title>selfserve-important</title><path d="M12.472 0A12.456 12.456 0 0 0 0 12.472c0 6.901 5.57 12.472 12.472 12.472 6.901 0 12.472-5.57 12.472-12.472C24.944 5.571 19.374 0 12.472 0zm1.712 20.283H10.76v-8.994h3.391l.033 8.994zM12.472 9.8a2.266 2.266 0 1 1 0-4.535 2.266 2.266 0 1 1 0 4.535z" fill="#005ea5" fill-rule="evenodd"/></svg><svg width="23" height="22" viewBox="0 0 23 22" id="selfserve-modal-close" y="375" xmlns="http://www.w3.org/2000/svg"><title>selfserve-modal-close</title><path d="M22.53 19.23l-2.69 2.69-8.34-8.34-8.34 8.34-2.69-2.69 8.308-8.309L.626 2.77 3.316.08 11.5 8.261 19.683.08l2.69 2.69-8.151 8.152 8.309 8.31z" fill="#7D7E86" fill-rule="evenodd"/></svg><svg width="20" height="15" viewBox="0 0 20 15" id="selfserve-tick" y="397" xmlns="http://www.w3.org/2000/svg"><title>Combined Shape</title><path d="M7.879 8.536L16.364.05l2.828 2.829-9.9 9.9-1.413 1.413-7.071-7.07 2.828-2.83 4.243 4.244z" fill="#FFF" fill-rule="evenodd"/></svg></svg>