<svg baseProfile="tiny" xmlns="http://www.w3.org/2000/svg" preserveAspectRatio="xMinYMin meet" viewBox="0 0 70 20" width="70" height="20"><title>internal-application-complete</title><path d="M5.657 8.773l-3.49-3.335L0 7.522l5.657 5.438L16.97 2.085 14.784 0 5.657 8.773" fill="#146C55" fill-rule="evenodd"/><g transform="translate(25)"><title>internal-application-updated</title><g fill="#7D7E86" fill-rule="evenodd"><path d="M0 14.974l1.294-4.82L4.83 13.68 0 14.974m1.883-5.41L11.463 0 15 3.53l-9.58 9.564-3.537-3.53"/></g></g><g transform="translate(45)"><title>internal-application-warning</title><path d="M17.802 14.102L9.455.274A.577.577 0 0 0 8.96 0a.577.577 0 0 0-.495.274L.077 14.172a.53.53 0 0 0 0 .55c.102.17.29.275.496.275h16.783a.56.56 0 0 0 .572-.55c0-.13-.047-.25-.126-.345zm-9.74-2.866H9.86V12.9h-1.8v-1.664zm0-6.295H9.86v5.034h-1.8v-5.03z" fill="#7D7E86" fill-rule="evenodd"/></g></svg>