<svg width="16" height="17" viewBox="0 0 16 17" xmlns="http://www.w3.org/2000/svg"><title>internal-search</title><g fill="#FFF" fill-rule="evenodd"><path d="M6.278 12.78A5.933 5.933 0 0 1 .35 6.856 5.934 5.934 0 0 1 6.28.928a5.933 5.933 0 0 1 5.926 5.927 5.932 5.932 0 0 1-5.926 5.926zm0-9.797a3.876 3.876 0 0 0-3.872 3.872 3.876 3.876 0 0 0 3.872 3.872 3.876 3.876 0 0 0 3.872-3.872 3.876 3.876 0 0 0-3.872-3.872z"/><path d="M15.362 14.056c.5.5.5 1.317 0 1.816-.5.5-1.317.5-1.816 0L9.77 12.097c-.498-.5-.498-1.316 0-1.816.5-.498 1.317-.498 1.817 0l3.775 3.776"/></g></svg>