<?xml version="1.0" encoding="UTF-8" standalone="no"?>
<svg width="16px" height="17px" viewBox="0 0 16 17" version="1.1" xmlns="http://www.w3.org/2000/svg" xmlns:xlink="http://www.w3.org/1999/xlink" xmlns:sketch="http://www.bohemiancoding.com/sketch/ns">
    <!-- Generator: Sketch 3.0.3 (7891) - http://www.bohemiancoding.com/sketch -->
    <title>internal-search</title>
    <desc>Created with Sketch.</desc>
    <defs></defs>
    <g id="Page-1" stroke="none" stroke-width="1" fill="none" fill-rule="evenodd" sketch:type="MSPage">
        <g id="Artboard-2" sketch:type="MSArtboardGroup" transform="translate(-22.000000, -62.000000)" fill="#FFFFFF">
            <g id="internal-search" sketch:type="MSLayerGroup" transform="translate(22.000000, 63.000000)">
                <path d="M6.278,11.781 C3.01,11.781 0.351,9.123 0.351,5.855 C0.351,2.587 3.01,-0.072 6.278,-0.072 C9.546,-0.072 12.204,2.587 12.204,5.855 C12.204,9.123 9.546,11.781 6.278,11.781 L6.278,11.781 Z M6.278,1.983 C4.143,1.983 2.406,3.72 2.406,5.855 C2.406,7.99 4.143,9.727 6.278,9.727 C8.413,9.727 10.15,7.99 10.15,5.855 C10.15,3.72 8.413,1.983 6.278,1.983 L6.278,1.983 Z" id="Fill-1" sketch:type="MSShapeGroup"></path>
                <path d="M15.362,13.056 C15.861,13.556 15.861,14.373 15.362,14.872 C14.862,15.372 14.045,15.372 13.546,14.872 L9.771,11.097 C9.272,10.598 9.272,9.781 9.771,9.281 C10.27,8.782 11.087,8.782 11.587,9.281 L15.362,13.056" id="Fill-2" sketch:type="MSShapeGroup"></path>
            </g>
        </g>
    </g>
</svg>